<svg xmlns="http://www.w3.org/2000/svg" viewBox="0 0 180.96 184.45"><title>compass</title><path d="M86.09.37A.39.39,0,0,1,86.45,0H87l7.51,7.33h0V.55a.39.39,0,0,1,.37-.37h2.2a.39.39,0,0,1,.37.37V13.37a.39.39,0,0,1-.37.37h-.37a.18.18,0,0,1-.18-.18L89,6h0v7.15a.39.39,0,0,1-.37.37h-2.2a.4.4,0,0,1-.37-.37Z" fill="#8c8c8c"/><path d="M87.37,182.43l.92-1.83a1.1,1.1,0,0,1,.73-.18,6.75,6.75,0,0,0,2.93,1.1,1.31,1.31,0,0,0,1.46-1.28c0-.92-.73-1.47-2.2-2.2-1.83-.73-4-2.2-4-4.58,0-2,1.65-4.21,4.76-4.21a7.75,7.75,0,0,1,4.58,1.65,1.1,1.1,0,0,1,.18.73l-1.1,1.65c-.18.19-.55.37-.73.19a5.44,5.44,0,0,0-2.93-1.28,1.23,1.23,0,0,0-1.28,1.1c0,.73.55,1.28,2.2,2s4.21,2,4.21,4.76c0,2.2-1.83,4.4-4.95,4.4a6.58,6.58,0,0,1-4.76-1.65A.27.27,0,0,1,87.37,182.43Z" fill="#8c8c8c"/><path d="M172.36,85.54a.39.39,0,0,1,.37-.36h2.56a.39.39,0,0,1,.37.36V96.71h4.95a.39.39,0,0,1,.37.36v2.2a.39.39,0,0,1-.37.37h-7.88a.39.39,0,0,1-.37-.37V85.54Z" fill="#8c8c8c"/><path d="M7.51,84.8A7.54,7.54,0,0,1,15,92.31a7.43,7.43,0,0,1-7.51,7.51A7.27,7.27,0,0,1,0,92.5,7.59,7.59,0,0,1,7.51,84.8Zm0,11.91a4.21,4.21,0,0,0,0-8.43A4.14,4.14,0,0,0,3.3,92.5,4.39,4.39,0,0,0,7.51,96.71Z" fill="#8c8c8c"/><rect x="32.23" y="26.31" width="2.01" height="11.54" transform="translate(-12.95 32.9) rotate(-45)" fill="#8c8c8c"/><rect x="27.62" y="152.33" width="11.54" height="2.01" transform="translate(-98.65 68.53) rotate(-45)" fill="#8c8c8c"/><rect x="145.95" y="31.19" width="11.54" height="2.01" transform="translate(21.67 116.71) rotate(-45)" fill="#8c8c8c"/><rect x="150.33" y="147.64" width="2.01" height="11.54" transform="translate(-64.15 151.94) rotate(-45)" fill="#8c8c8c"/><rect x="73.81" y="6.3" width="1.1" height="6.96" transform="translate(-0.46 14.99) rotate(-11.48)" fill="#8c8c8c"/><rect x="64.65" y="8.9" width="0.91" height="6.96" transform="translate(-0.58 21.19) rotate(-18.41)" fill="#8c8c8c"/><rect x="55.59" y="12.45" width="1.1" height="6.96" transform="translate(-1.43 25.48) rotate(-25.26)" fill="#8c8c8c"/><rect x="47.23" y="16.96" width="1.1" height="6.96" transform="translate(-3.6 28.21) rotate(-31.76)" fill="#8c8c8c"/><rect x="39.21" y="22.36" width="1.1" height="6.96" transform="translate(-7.43 30.45) rotate(-38.6)" fill="#8c8c8c"/><rect x="26.47" y="35.93" width="1.1" height="6.96" transform="translate(-20.58 35.21) rotate(-50.51)" fill="#8c8c8c"/><rect x="20.8" y="43.45" width="0.92" height="6.96" transform="translate(-29.72 39.51) rotate(-57.35)" fill="#8c8c8c"/><rect x="16.1" y="52.02" width="1.1" height="6.96" transform="translate(-40.6 46.58) rotate(-64.44)" fill="#8c8c8c"/><rect x="12.48" y="60.84" width="1.1" height="6.96" transform="translate(-51.97 55.35) rotate(-70.69)" fill="#8c8c8c"/><rect x="9.8" y="70.05" width="0.92" height="6.96" transform="translate(-63.78 68.02) rotate(-77.81)" fill="#8c8c8c"/><rect x="106.22" y="9.18" width="6.96" height="1.1" transform="matrix(0.2, -0.98, 0.98, 0.2, 78.33, 115.3)" fill="#8c8c8c"/><rect x="115.33" y="11.61" width="6.96" height="0.92" transform="translate(69.74 120.94) rotate(-71.54)" fill="#8c8c8c"/><rect x="124.33" y="15.2" width="6.96" height="1.1" transform="translate(59.05 124.63) rotate(-64.75)" fill="#8c8c8c"/><rect x="132.98" y="19.66" width="6.96" height="1.1" transform="translate(47.38 125.54) rotate(-58.2)" fill="#8c8c8c"/><rect x="140.82" y="25.1" width="6.96" height="1.1" transform="translate(34.26 122.45) rotate(-51.42)" fill="#8c8c8c"/><rect x="153.47" y="39.54" width="6.96" height="1.1" transform="translate(10.37 109.03) rotate(-39.52)" fill="#8c8c8c"/><rect x="159.18" y="47.27" width="6.96" height="0.92" transform="translate(-0.05 95.3) rotate(-32.65)" fill="#8c8c8c"/><rect x="163.89" y="55.74" width="6.96" height="0.92" transform="translate(-7.87 77.7) rotate(-25.56)" fill="#8c8c8c"/><rect x="167.54" y="64.61" width="6.96" height="1.1" transform="translate(-11.93 60.36) rotate(-19.35)" fill="#8c8c8c"/><rect x="170.26" y="73.9" width="6.96" height="0.92" transform="translate(-11.82 38.54) rotate(-12.24)" fill="#8c8c8c"/><rect x="71.06" y="175.13" width="6.96" height="1.1" transform="translate(-112.42 213.94) rotate(-78.57)" fill="#8c8c8c"/><rect x="61.61" y="172.65" width="6.96" height="0.92" transform="translate(-119.72 180.18) rotate(-71.58)" fill="#8c8c8c"/><rect x="52.7" y="169.04" width="6.96" height="1.1" transform="translate(-121.18 148.08) rotate(-64.75)" fill="#8c8c8c"/><rect x="44.31" y="164.53" width="6.96" height="1.1" transform="translate(-117.74 118.87) rotate(-58.26)" fill="#8c8c8c"/><rect x="36.3" y="159.03" width="6.96" height="1.1" transform="translate(-109.76 91.12) rotate(-51.41)" fill="#8c8c8c"/><rect x="23.61" y="146.65" width="6.96" height="1.1" transform="translate(-87.43 50.84) rotate(-39.49)" fill="#8c8c8c"/><rect x="17.86" y="138.94" width="6.96" height="0.92" transform="translate(-71.77 33.49) rotate(-32.62)" fill="#8c8c8c"/><rect x="13.18" y="130.43" width="6.96" height="1.1" transform="translate(-54.94 20.04) rotate(-25.59)" fill="#8c8c8c"/><rect x="9.58" y="121.55" width="6.96" height="1.1" transform="translate(-39.68 11.2) rotate(-19.33)" fill="#8c8c8c"/><rect x="6.8" y="112.28" width="6.96" height="0.92" transform="translate(-23.68 4.74) rotate(-12.24)" fill="#8c8c8c"/><rect x="108.97" y="172.31" width="1.1" height="6.96" transform="translate(-32.74 25.27) rotate(-11.46)" fill="#8c8c8c"/><rect x="118.53" y="169.74" width="0.91" height="6.96" transform="translate(-48.6 46.43) rotate(-18.4)" fill="#8c8c8c"/><rect x="127.25" y="166.32" width="1.1" height="6.96" transform="translate(-60.23 70.77) rotate(-25.26)" fill="#8c8c8c"/><rect x="135.76" y="161.7" width="1.1" height="6.96" transform="translate(-66.53 96.47) rotate(-31.76)" fill="#8c8c8c"/><rect x="143.85" y="156.29" width="1.1" height="6.96" transform="translate(-68.13 125) rotate(-38.6)" fill="#8c8c8c"/><rect x="156.35" y="141.91" width="1.1" height="6.96" transform="translate(-55.09 173.92) rotate(-50.49)" fill="#8c8c8c"/><rect x="162.22" y="133.98" width="0.92" height="6.96" transform="translate(-40.82 200.28) rotate(-57.35)" fill="#8c8c8c"/><rect x="166.98" y="125.59" width="0.92" height="6.96" transform="translate(-21.23 224.46) rotate(-64.45)" fill="#8c8c8c"/><rect x="170.5" y="116.88" width="1.1" height="6.96" transform="translate(0.92 242.02) rotate(-70.7)" fill="#8c8c8c"/><rect x="173.4" y="107.44" width="0.92" height="6.96" transform="translate(28.71 257.42) rotate(-77.8)" fill="#8c8c8c"/></svg>