<?xml version="1.0" encoding="UTF-8"?>
<svg width="514px" height="514px" viewBox="0 0 514 514" version="1.1" xmlns="http://www.w3.org/2000/svg" xmlns:xlink="http://www.w3.org/1999/xlink">
    <!-- Generator: Sketch 46.2 (44496) - http://www.bohemiancoding.com/sketch -->
    <title>instagram</title>
    <desc>Created with Sketch.</desc>
    <defs></defs>
    <g id="Page-1" stroke="none" stroke-width="1" fill="none" fill-rule="evenodd">
        <path d="M257,47 C326,47 333,48 360,49 C386,50 399,54 408,57 C420,62 429,68 437,76 C446,85 452,94 456,105 C460,115 464,128 465,153 C466,181 467,188 467,257 C467,326 466,333 465,360 C464,386 460,399 457,408 C452,420 446,429 438,437 C429,446 420,452 409,456 C399,460 386,464 361,465 C333,466 326,467 257,467 C188,467 181,466 154,465 C128,464 115,460 106,457 C94,452 85,446 77,438 C68,429 62,420 58,409 C54,399 50,386 49,361 C48,333 47,326 47,257 C47,188 48,181 49,154 C50,128 54,115 57,106 C62,94 68,85 76,77 C85,68 94,62 105,58 C115,54 128,50 153,49 C181,48 188,47 257,47 L257,47 Z M257,1 C187,1 179,2 152,3 C124,4 105,8 90,14 C73,21 58,30 44,44 C30,58 21,73 14,90 C8,106 4,124 3,152 C2,179 1,187 1,257 C1,327 2,335 3,362 C4,390 8,409 14,424 C21,441 30,456 44,470 C58,484 73,493 90,500 C106,506 124,510 152,511 C179,512 187,513 257,513 C327,513 335,512 362,511 C390,510 409,506 424,500 C441,493 456,484 470,470 C484,456 493,441 500,424 C506,408 510,390 511,362 C512,335 513,327 513,257 C513,187 512,179 511,152 C510,124 506,105 500,90 C493,73 484,58 470,44 C456,30 441,21 424,14 C408,8 390,4 362,3 C335,2 327,1 257,1 Z M257,125 C184,125 125,184 125,257 C125,330 184,389 257,389 C330,389 389,330 389,257 C389,184 330,125 257,125 Z M257,343 C210,343 171,304 171,257 C171,210 210,171 257,171 C304,171 343,210 343,257 C343,304 304,343 257,343 Z M424,120 C424,137 411,151 394,151 C377,151 363,137 363,120 C363,103 377,90 394,90 C411,90 424,103 424,120 Z" id="instagram" fill="#000000" fill-rule="nonzero"></path>
    </g>
</svg>