<?xml version="1.0" encoding="UTF-8"?>
<svg width="512px" height="510px" viewBox="0 0 512 510" version="1.1" xmlns="http://www.w3.org/2000/svg" xmlns:xlink="http://www.w3.org/1999/xlink">
    <!-- Generator: Sketch 46.2 (44496) - http://www.bohemiancoding.com/sketch -->
    <title>Shape</title>
    <desc>Created with Sketch.</desc>
    <defs></defs>
    <g id="Page-1" stroke="none" stroke-width="1" fill="none" fill-rule="evenodd">
        <path d="M383,261 C376,253 364,249 347,249 C325,249 310,256 301,268 C292,281 288,299 288,322 L288,497 C288,500 287,503 284,506 C282,508 278,510 275,510 L183,510 C180,510 177,508 174,506 C172,503 170,500 170,497 L170,174 C170,171 172,168 174,165 C177,163 180,161 183,161 L272,161 C275,161 278,162 280,163 C282,164 283,167 284,170 C284,173 285,176 285,177 C285,178 285,181 285,185 C308,163 339,153 376,153 C419,153 452,163 476,184 C500,206 512,237 512,279 L512,497 C512,500 511,503 508,506 C506,508 502,510 499,510 L405,510 C402,510 399,508 396,506 C394,503 392,500 392,497 L392,300 C392,283 389,270 383,261 Z M106,106 C94,118 79,124 62,124 C45,124 30,118 18,106 C6,94 0,80 0,62 C0,45 6,31 18,19 C30,7 45,0 62,0 C79,0 94,7 106,19 C118,31 124,45 124,62 C124,80 118,94 106,106 Z M121,174 L121,497 C121,500 119,503 117,506 C114,508 111,510 108,510 L16,510 C13,510 10,508 7,506 C5,503 3,500 3,497 L3,174 C3,171 5,168 7,165 C10,163 13,161 16,161 L108,161 C111,161 114,163 117,165 C119,168 121,171 121,174 Z" id="Shape" fill="#000000" fill-rule="nonzero"></path>
    </g>
</svg>