<?xml version="1.0" encoding="UTF-8"?>
<svg width="512px" height="429px" viewBox="0 0 512 429" version="1.1" xmlns="http://www.w3.org/2000/svg" xmlns:xlink="http://www.w3.org/1999/xlink">
    <!-- Generator: Sketch 46.2 (44496) - http://www.bohemiancoding.com/sketch -->
    <title>Shape</title>
    <desc>Created with Sketch.</desc>
    <defs></defs>
    <g id="Page-1" stroke="none" stroke-width="1" fill="none" fill-rule="evenodd">
        <path d="M512,211 C512,183 490,161 462,161 C446,161 432,168 423,180 C383,151 327,133 264,132 L301,22 L393,44 C395,44 396,44 397,44 C398,65 415,82 437,82 C459,82 476,64 476,42 C476,20 459,3 437,3 C420,3 407,12 400,26 C400,26 399,25 398,25 L297,1 C292,-1.62092562e-14 287,3 286,7 L243,132 C182,134 128,151 88,179 C79,168 66,161 50,161 C22,161 0,183 0,211 C0,231 12,249 30,257 C28,264 27,272 27,280 C27,362 129,429 255,429 C381,429 483,362 483,280 C483,273 482,265 480,258 C499,250 512,232 512,211 Z M139,251 C139,231 156,214 176,214 C196,214 213,231 213,251 C213,271 196,288 176,288 C156,288 139,271 139,251 Z M339,353 C322,370 295,378 256,378 C217,378 190,370 173,353 C171,351 171,347 173,344 C175,342 179,342 181,344 C196,359 220,366 256,366 C291,366 316,359 331,344 C333,342 337,342 339,344 C341,347 341,351 339,353 Z M337,288 C316,288 299,272 299,251 C299,231 316,214 337,214 C357,214 373,231 373,251 C373,272 357,288 337,288 Z" id="Shape" fill="#000000" fill-rule="nonzero"></path>
    </g>
</svg>