<svg xmlns="http://www.w3.org/2000/svg" viewBox="0 0 250.21 144.88"><defs><style>.a{fill:#999;}</style></defs><title>logotype</title><path class="a" d="M59.89,81.12,61,79.48l.37-1.28.73-1.28,1.28-2.75.37-1.46.73-1.28L65,70l.55-2,.73-1.47L67,63.54l.55-1.47L68,59.33l.37-.37.73-2.2.37-3.11L70,50.72l.37-3.11.55-1.1.37-2.93-.18-2.93.37-1.1-.73-1.1-1.1-.73-.92.18-1.28.73-1.83.18-1.65.92L63,41.92l-.37,2.93.37.55-.37.92-.55,2.93-.37,3.11-.55,1.28L61,55.11l-.18.18-.55,2.56-.18.18-.18,1.47L59.16,61,59,62.44l-.37.36L58.06,65l-.92,2.2-.37,2.2L56,70.68l-.73.92-.92,2.75-1.65,2.56-1.47,2.75-1.65,2.56-.18.73-.55.73-.18.73-.37.18-.37.55-1.1,1.1v.55l-.55.37-.18.55-.55.55v.37l-.55.91-.37.19-.18.73-.55.18-.18.73-.92.73-.37.55-1.1,1.1-2,2.2-4.21,4.21-1.1.92-1.1,1.1-2.2,2.2-.55.18-.73.92-.92.55-1.1.92-.73.37-1.1-.37-.18-2,.37-1.46.37-2.93.73-2.93.55-2.93.37-.55.18-.73.73-2.93.73-3.11.18-1.47.55-2L31.5,78l.37-2.93h.37v-.92l.18-1.1v-.73h.18v-.55H33v-.55l.55-2.93.18-.18.73-2.75.18-1.47.37-.55L35.35,61l.37-.55.18-2.75.55-.92L37.18,54l1.1-2.93L39,49.79h.18l.18-.55L41,47.77l.55-.18.18-.55.73-.18,1.65-1.65.73-1.47-.18-1.47L44,41l-1.1-.73-.18-.37-1.28.18-2.93.55-.55.55h-.37l-.55.55-1.28.73-2.38,2-1.1,1.28-2,2-2.56,1.28-1.46.37v.36l-.73.18-.55.55h-.37v.37l-.92.18-2.38,1.1-1.65.92-.37.18-.92.55-2.2,1.1h-.37v.18L14.1,56l-2.75,1.46-1.1.92L9,59.14l-.55.55-.55.18L7,60.79l-2,2.2L3.11,65.37l-.55,1.28-.37.18v.37l-.55.55v.37l-.55.55-.37.73-.37.18L0,70.5v4l.37,2.75.55,1.47.18.18.37.92,1.47,1.28.73,1.1L4,83.32l1.83,1.47.73.37,1.1.73.73.18,1.1.73.73.18.92.18.73.18,2.93.18,1.28-1.83.18-1.65-.18-1.65-.55-1.1-.92-.92L13.37,80,13,79.66l-2-1.1-1.65-2-.55-1.28V74l.37-2.56,1.1-2.75h.18v-.73l.55-.18.18-.73,1.46-1.28,2.2-2.2,2.38-1.65L20,60.43l.37-.55,2.93-1.28,2.56-1.1h1.28l.55.37.55.92-.37,1.47-.73,2.93-.55,2.93-.37.18-.37,2.56-.18.19v2l-.37.37-.55,2-.37.19-.18,3.11-.92,2-.55,2.93-.55,3.11-.92,2.93-.18,1.47-.55,1.47-.18,1.47-.37.18.37,2.2-.37.18-.18.92-.92,1.83v.73l-.37,1.28-.55,2.93L17,105.32l-.55,3.11-.37.55-.73,2v1.65l-.73,2.93h-.18v1.65l.18.18,1.65,1.28,2.56-.18,1.46.18,1.47-.18.18-.18,1.46-.18,1.83-1.28,1.46-1.1,1.83-.73,1.1-.92.73-.36.37-.55.73-.18.18-.37h.55l1.83-1.83h.73l.18-.36h.55l.37-.55,1.28-.91,2.2-2,2.2-2,2.2-2.2,2.2-2.2,2-2.2,2.2-2.2.37-.92L52.2,93l1.28-1.1.37-.92,1.1-1.28.55-1.47.92-1.1.18-.55.55-.18L57.88,85l.18-1.1.55-.55.18-.73H59v-.36l.73-.55ZM29.67,77.66l-.92.37h-.37v-.37l.37-.55h1.1l.37.73Zm2.38-11.18-.73.19-.55-.37.18-.55h.18l1.47-.19Zm.37-13.37-.18,1.1L32.05,54l-.18-1.47Zm-1.28,3.66-.18.91-.18-.18-.37-.37-.18-.36Zm-1.65,4.58.37-.55.73.18.55.36-.18.37-.73.37h-.37l-.37-.55ZM29.12,72l-.37.18L28.39,72l.18-.18.37-.37h.37ZM28,69.6l.37-.18.55-.19.37.37V70l-.18.18-.73.19L28,70.15Zm-.73,13,.37.37v.55h-.18l-.37-.18-.37-.73Zm-1.65-3.48.55-.55v-.18l.37.37-.18.37-.73.19ZM22,106.05l-.18-.19v-.36l.37-.19.18.37Zm2.93-17.22-1.28-.18-.55-.92,1.47.18.55.73Zm.18-4.4-.37-.18-.55-.37.37-.55.55.36Zm27.47,1.65.18-.19.18-.37.37.37.18.37Zm2-.74-.18-.18-.18-.73h.55Z"/><polygon class="a" points="83.52 51.28 83.52 51.47 83.15 51.47 81.51 51.65 79.67 53.48 78.94 54.76 78.94 55.68 79.13 56.23 79.13 57.15 79.49 57.7 79.86 58.98 80.41 59.53 80.59 60.08 82.61 61.54 83.7 61.73 85.35 61.73 85.35 61.36 86.45 61.18 88.1 59.53 89.2 57.7 89.56 56.23 89.2 54.77 88.47 53.3 86.27 51.47 83.52 51.28"/><polygon class="a" points="161.55 52.75 160.45 52.02 158.98 51.29 158.07 51.1 155.69 51.65 153.67 53.48 153.67 53.67 153.49 54.95 152.76 57.7 152.76 58.43 153.67 59.89 154.77 60.99 156.24 61.91 157.34 62.27 158.99 62.27 160.27 61.73 161.55 60.81 162.47 59.71 162.83 58.98 163.01 58.06 163.38 57.7 163.57 56.78 163.38 55.31 162.65 53.85 161.55 52.75"/><path class="a" d="M248.56,91.39h-.92l-1.47.55-.91,1.46-1.28,2L242.52,98l-1.65,2.56v.37h-.19v.55l-1.28,1.28-.19.55-1.1,1.65-1.83,2.38-1.1,1.1L235,109l-.55.55-2.2,2-1.47.73-1.46.55-1.1-.18-.36-.37-.18-.55-.55-.73-.18-1.1.36-1.46.55-2.93.73-2.2H229l.37-1.28.55-1.28L231,98l-.18-.36-.73.18-.54-.2.19-.18.18-.18h.92l.18-.55.36-.36.18-.73.55-.73.92-2.93.73-1.28L235,87.54l.36-1.47-.18-1.28L235,81.31l-.37-.92-.92-1.28-1.65-2-2.2-2-2.2-2.2-.55-.18-1.28-1.47-.18-1.47L226,69l.73-2,1.28-2.56.37-1.47-.37-1.65-.36-.18v-.36L226,59.69h-.73l-.18-.37-2.38-.55-1.47.55-.55.55h-.55l-.92,1.28-1.1.92-.19.73-.55.55-.18.73L216,65.74l-.37,1.1-.18,1.65.18,1.65h.18L216,71.6h.18V72h.36l.18.55.73.92.55,1.28-.73,2.75-.19.18-.18.55-.55.73-.18.92-.37.18-.18.55-.36.36-.92,2.2-.92,1.28V85l-.55.55-.73,2.2-.92,1.1-.18.92-1.28,2-.42,1L209,93v.36l-.36.19-.18.55-.37.18.18.55-.92,1.28-.18.55-.36.18v.37l-.55.18V98l-.91,1.28v.37l-.37.18-.18.55-.36.18-.18.73-1.1,1.47-2.2,2v.37l-1.1,1.1-.18.73-1.47,1.1-.18.55-2.2,2h-.36l-.55.73-.55.18-.55.73-2.38,1.28-1.47.37-.19-.19-.73-.18-.92-1.28-.36-1.28v-1.47l.73-2.93h.18l.36-1.1.92-2.2.55-2.2.18-.18.19-.92.36-.55.37-1.28h.19v-.55H192v-.37h.18v-.55h.37v-.37h.19V95.8l.36-.18.55-1.47.73-2.75.36-.37.55-1.47,1.28-2.75.55-2.75.37-.55,1.1-2.75.55-.73.19-.73.92-2.56.73-1.1v-.37h.19v-.55h.18v-.55h.37l.92-2,.18-1.1.38-.93L203,70l-.55-.37-1.47.18-.18.19-1.1.36-1.47.73v.18h-.55l-.73.73-2,.92-1.46.18-.92-.73L191,69.59l-1.83-1.83-2.56-1.28-1.28.18-3.3-.18-1.28.37-2.56,1.1h-.36l-.55.55L176,69l-.55.73-.73.19-.36.55-1.1.92-.92,1.28-.36.92-.55.55.36.73-2,2.2-1.1,2.38-.37.18v-.18l-.55.18v.55l-.37.18v.37l-.55.37-.19.55-.36.18L166,83h-.19l-.36,1.47-.19.18-.37,1.47h-.18v.36h-.36V87h-.18v.37h-.19v.55h-.18l-1.65,4.77-.47,1.61-1.37,2h-.18v.36h-.37l-.18.55-.37.18L159,98l-.55.19-1.65,2.2v.37l-.55.18-.19.55-.36.18-1.1,1.28-2,2.2-2.2,2H150l-.36.55h-.37l-.55.55h-.37l-.19.55-.73.18-.36.55h-.37l-.73.73-1.83,1.28L141.4,113v-.93l-.19-.18-.18-.36.37-1.28.73-2.56,1.28-2.93.73-1.28.37-2.2.55-.55.18-.73.73-.92.92-2.75.55-.55.92-2.93,1.28-3.11.36-1.47.37-.55v-.37l1.47-2.56.73-2.2.92-2.56.92-1.1v-.37h.18V78h.18v-.37H155V77.1h.39l.73-2.2.36-.55.92-2.2v-.37h.19l.18-.73.37-.73.36-1.47-.55-1.28-1.1-.73-.92-.18h-3.3l-1.46.55-.37-.18-1.1,2.38-2,2.2-1.1,2.93-1.65,2.75-1.47,2.56-.55,1.46-.55.55-1.1,2.75-.55.55-.91,2.38-.55.55-1.46,2.75v.68l-.56.24-1.1,1.1v.37l-.36.18-.18.55-.37.18-.18.73-.92,1.28-.18.55-.37.18v.37l-.55.18V98l-.19.37v.37l-.37.18-.18.55-.37.18-.18.73-1.1,1.47-2.2,2v.37l-1.1,1.1-.18.73-1.47,1.1-.73,1.46-2.2,2h-.37l-.55.73-.55.18-.55.73-2.38,1.28-1.46.37-.19-.19-.73-.18-.92-1.28-.36-1.28v-1.47l.73-2.93h.19l.36-1.1.92-2.2.55-2.2.18-.18.19-.92.36-.55.37-1.28h.19v-.55h.18v-.37h.18v-.55h.37v-.37h.19V95.8l.36-.18.55-1.47.73-2.75.36-.37.55-1.47,1.28-2.75.55-2.75.37-.55,1.1-2.75L126,80l.19-.73.92-2.56.73-1.1v-.37H128v-.55h.18v-.55h.37l.92-2,.18-1.1.92-.93-.18-.18-.55-.37-1.47.18-.19.19-1.1.36-1.47.73v.18h-.55l-.73.73-2,.92-1.47.18-.92-.73-1.47-2.75-1.83-1.83-2.56-1.28-1.28.19-3.3-.19-1.28.37-2.56,1.1h-.36l-.55.55-1.28.55-.55.73-.73.19-.37.55-1.1.92-.91,1.28-.37.92-.55.55-.37.73-2,2.2-1.1,2.38-.37.18v-.18l-.55.18v.55l-.37.18v.37l-.55.37-.18.55-.37.18L92.68,83H92.5l-.37,1.47-.18.18-.37,1.47H91.4v.36H91V87h-.18v.36h-.18v.55h-.18L88.86,92.6l-.58.29H88.1l-.18.55-.55.55-.18.73-.92.73-.37.92-.73,1.47-.18.55-2,1.83-1.83,2.38-.18.73-.73.73-.37.73-.37.18-.18.73-.92.73-1.1,1.28-1.1.73-1.1,1.1-.73.18-.73.92-.37.18-.92.73-1.1.37-.37.36-1.1.37-1.1-.37-.92-1.1-.55-2.38.18-.92.73-2.93.37-.18.18-1.1.18-.18,1.1-2.93,1.28-2.93.92-2.75,1.28-2.75.37-1.28,1.1-2.75,1.28-2.75.92-2.93.92-1.1.18-.55.55-.18.37-.92.18-1.1.37-.36.18-1.1.55-.55V76.2l.18-.18.18-1.46.55-.55.18-.73.55-.55.18-.37.92-2.93-.73-1.28L81,67.22l-1.47-.37H77.84l-1.28.37-2.2,2-.18.73L72.9,72.9l-.18.73-.37.55-1.1,2.75-1.1,2.93-.37.37-.55,1.28-1.1,2.93H68l-.18.37-.92,2.93-.73,1.83h-.18v.37h-.18v.55h-.37V91h-.18l-.55,1.83-.37.37-.37,1.47-.55.92L63,96.9h-.37v.37h-.18v.55h-.18l-.18.92-.92,3.11-.73,1.28-.18,2.2-.73,2.93v1.28l.18,3.11.55,1.28.92,1.83.18.18,1.28,1.46.92.55,1.65.37,3.11.55,1.1-.36,2.93-.92,2-.73h.73l.18-.37h.55l.18-.55h.55l.18-.37h.37l.37-.55.55-.18.37-.55.73-.19.37-.55.73-.37.73-1.26,2.2-2.2v-.37l.55-.55.18-.37.55-.55.18-.37h.18l.37-.92.43-.34-.06.5.18,1.47.37,3.11,1.1,2.75h.18l.55,1.1L89.57,117l.55.36,2.2,1.1,1.65.18,1.65-.37,2.56-.73,2-.37V117h.37l.18-.37.73-.37v.18l.55-.18.55-.55.73-.18.37-.55.73-.18.18-.37.73-.37,1.1-1.1.55-.19.73.55.73,1.1.55,1.28.36.18,1.1,1.1.55.18.19.55,2.38.92,2.2.19,1.47-.19,3.11-.92,1.46-.55V117h.55l1.47-1.1v-.18h.55l2.2-2,2.2-2,.36-.55.92-.73.37-.55,2.2-2.2,1.32-1.9-.4,1.71-.19.18-.55,1.83-.37.37-.18.55-.37.37-.18.92-.36.37L130,114.84v.73l-.18.55-1.1,2-1.1,1.1-1.28.73-2.75,1.28-1.1.36-.73.55h-.55l-.55.55-1.46.55-.55.55-1.47.73-2.75,1.28-.19.36-.73.37v.18H113l-.55.55-2.2,1.83-2,2.38-1.28,2-.37,2.38.19,2.93,1.1,2.38.92,1.1,2.56,1.47,2.93.92,1.47.18,3.11-.55,1.46-.18,1.83-.92.92-.92.55-.18,2-1.83,2-2.2,1.83-2.38.73-1.28h.18l.55-1.1,1.28-2.75.73-1.28.55-1.28.37-.36.55-2.2.73-2.75,1.28-1.65H137l2.38-1.1,2.38-1.46,1.28-.37v.55h.55v-.18l.55-.19.36-.36,1.83-1.28.73-.37v-.37l.55-.18.73-.37,2.38-1.65,1.1-1.1.73-.37,2.38-2,2-2.21h.36l1.28-1.28.25-.51-.06.52.18,1.46.37,3.11,1.1,2.75.55,1.1,1.65,1.83.55.37,2.2,1.1,1.65.18,1.65-.37,2.56-.73,2-.37V117h.36l.18-.37.73-.37v.37l.55-.18.55-.55.73-.18.37-.55.73-.19.18-.37.73-.36,1.1-1.1.55-.18.73.55.73,1.1.55,1.28.36.18,1.1,1.1.55.18.18.55,2.38.92,2.2.18,1.47-.18,3.11-.92,1.46-.55v-.18h.55l1.47-1.1v-.18h.36l2.2-2,2.2-2,.37-.55.91-.73.37-.55,2.2-2.2,1.65-2.38,1.83-2.38.37-.92.55-.55.73-1.28,1.47-2.75.55-.55.18-.73.55-.55.55-1.1h0l.19-.19.18-.55.36-.18.55-1.28h.18v-.55l.73-1.28,1.28-2.56h.18v-.37l.92-1.47.18-.55h.37v-.55h.73v-.36H220v-.55l.73-.92.18-.73,1.1-2.75,1.28-.92.73.18,1.65,1.65h.55l.37.55.37.19v.18l.36.18v.37l.55.55-.18,1.65L227,86.8l-.37.18-.19,1.47-.55.55-.18.73-.73,1.1-1.28,2.93L223.29,95l-.55,1.47-.92,2.2h-.18l-.73,2-.36,1.65-.19.18v.55l-.36,1.47-.37,3.11-.36,3.3.36,1.47.73,1.1.37,1.1,1.28,1.47,2.2,1.83,1.1.19.18.37h.37l3.48-.19,2-.55,2.2-1.28,2.38-1.83,2.38-1.83,1.1-1.83,2.2-2.2.19-.73,1.28-1.65,1.65-2.38,1.46-2.2,1.28-2.75.55-.55.92-1.47,1.28-2.75L250,93Zm-55.32-8.24.18-.18.55-.18.37.18-.18.73h-.92Zm-41.58-11h.55l.37.73-.37.19-.55-.37Zm-.36,6.22.36.18v.37h-.55l-.19-.37Zm-31.14,4.77.18-.18.55-.18.37.18-.18.73h-.92ZM76.38,74.73l.55.18.18.37-.18.55h-.37l-.18-.18-.18-.55ZM75.1,77.48l1.1-.55.37.18.18.55-1.1.37-.73-.37Zm-9.16,31-.73.18-.18-.73h-.18l-.73-.55.18-.37,1.1.37.55.55Zm50.55-11.54-.36-.18-.18-.55.18-.36.36.18.18.37Zm.19-2.2-.55-.55.36-.73.37.37v.92Zm.73-1.46h-.55V93l.18-.55h.55Zm.92,2h-.55v-.36h.55Zm.92-3.66h0v.18h-.36L118,91.4l.73-.37.36.18Zm-.92-8.06h.55v.55h-.55Zm-.73,5.13.55.55v.37H118l-.37-.18-.18-.73Zm-7.14-18.32.55.18-.36.55-.37-.37Zm-4,2.56.36.19v.55h-.36l-.37-.37Zm-7.51,7.33.18-.18.37-.18.73.37.18.37H98.91Zm-5.68,11.9.55.18v.18l-.37.18L93,92.5Zm-.55,7.7v-.18l.18-.18.55-.19-.37.37Zm18.5,4.94-1.1.55-.73.19-.36-.19.18-.55.55-.18.18-.18.73-.73h.55Zm0-8.06-1.28,2.56L108.62,102l-.37.92-.36.18v.55l-.55.18v.37l-1.1,1.1-2,2.38-.36.18-.55.55-3.48,1.83-.19.37h-.73l-.74.54H96.89l-1.46-.37v-.18l-1.28-1.1L93.59,107h-.18l.18-1.28.73-2.93.73-2.56.37-.37.19-.55L96,96.33l.37-.73.36-.18.18-.73.37-.37.91-2.75,1.1-2.93.55-.55.37-.92,1.65-2.75.18-.73,1.1-2,.55-.55.36-.73.18-.18,1.65-1.83V78l1.28-1.47,1.1-.92h.37l.18-.37.92-.37,2-.73h1.47l1.47.37,2,1.47.55,1.28L117,78.75l-.18,3.11-.92,2.93-1.28,2.75-.37,1.1-.92,2.2-.92,2.93Zm1.28,11h-.36l-.36-.92h.55l.36.37Zm.73,3.48.18-.18.19-.55.55.19.18.73Zm1.1,2.2-.55-.18.18-.18.18-.37.36.18Zm10.08,14.83-1.28,2.38-.55.55-.18.73-.55.36v.55l-.36.18-.19.73-2,2.2-1.83,1.28-.55.18v.37l-2,.19-1.1-.37-.92-1.1.18-.73.55-1.65,1.83-2.2,1.1-.92.92-.55,2.2-1.83,1.65-.55v-.18l1.47-.91.19-.18h.92l.55.73Zm2.56,3.48V131l.55.55.18.91Zm4.76-10.8,1.1.37.18.36h-.36l-.92-.36Zm1.83,2.56-.55-.37h-.19l-.92-.73-.18-.37,1.28.19.55.36.36.73Zm8.79-31.32.18-.18.37-.36.36.18.18.92-.37,1.1-.36-.73-.18-.92Zm2.2,2.75-1.83.18v-.18l1.1-.37.55-.55h.18l.55.18Zm2-4.95-1.83.73.18,1.47-.73-.37-.36-.73.91-.73.36-1.11h.18l.73.19.36-.37.37.18.19.92Zm.55-3.29h-.73v-.37l.18-.55.55.37ZM150,80.22h.37l-.18.55-1.47.92v-.92l.73-.92Zm-.73-4.95h.37v.55h-.73Zm-1.1,1.83.19-.18h1.28v.73l-.73.73-.18,1.1-.55-.36-.18-.73.55-.55v-.19Zm-2.94,2.75.18-.18,1.1-.18.37.18v.55l-.73.37.18,1.83-.73-.37V81l-.36-.55h0Zm-.17,4.94.73-.37.55-.55.91-.37v-.92l.55.55.36.73.55.73V85l-.37.37H148l-.92-.73-.92.19-.92.55-.37-.18Zm.18,1.47.73.18.18.73-.18.37-1.1.37h-.73v-.55l.55-.73Zm-1.65-2.2.73.37.36,1.65-.18-.19-.73-.37-.37-1.1Zm-1.47,6,.91-.92.73-.18.36.73-.73.36-.55.37.18.73-.36-.18-.55-.72Zm-4.58,23.62-.36.19-.73-.37.18-.55.73.18.18.18Zm2.38-12.27-.55.18-.55-.18.18-.19.55-.18.36.18Zm.73-1.28.37-.55h.55l-.18.37v.92h-.18l-.36-.37Zm48.9-3.3-.36-.18-.18-.55.18-.36.36.18.18.37Zm.18-2.2-.55-.55.37-.73.36.37v.92Zm.73-1.46h-.55V93l.18-.55h.55Zm1.1,2H191v-.36h.55Zm.73-3.66v.18H192L191,91.4l.73-.37.36.18Zm-.73-8.06H192v.55h-.37Zm-.73,5.13.55.55v.37h-.19l-.36-.18-.19-.73Zm-7.33-18.32.55.18-.18.55-.55-.37Zm-4,2.56.36.19v.55h-.36l-.37-.37ZM172,80.23l.18-.18.37-.18.73.37.18.37H172Zm-5.13,12.09v.18l-.36.18h0l-.3-.3.12-.24Zm-1.1,7.33.19-.18.55-.19-.36.37-.37.19Zm18.5,5.13-1.1.55-.73.19-.36-.19.18-.55.55-.18.18-.18.73-.73h.55Zm0-8.06L183,99.27,181.7,102l-.37.92-.36.18v.55l-.55.18v.37l-1.1,1.1-2,2.38-.36.18-.55.55-3.48,1.83-.19.37H172l-1.29.54h-1.28l-1.47-.37v-.18l-1.28-1.1-.55-2.56h-.18l.18-1.28.73-2.93.73-2.56.36-.37.18-.55.37-2.93.36-.73.37-.18.18-.73.36-.37.92-2.75,1.1-2.93.55-.55.36-.92,1.65-2.75.18-.73,1.1-2,.55-.55.36-.73.18-.18,1.65-1.83V78l1.28-1.47,1.1-.92h.37l.18-.37.92-.37,2-.73h2l1.47.37,2,1.47.55,1.28-.18,1.47-.18,3.11L189,84.8l-1.28,2.75-.37,1.1-.92,2.2-.92,2.93Zm1.46,11h-.36l-.37-.92h.55l.37.37Zm.55,3.48.18-.18.18-.55.55.19.18.73Zm1.1,2.2-.55-.18L187,113l.18-.37.36.18Zm33-42.5h-.18l-.55-.55.18-.37.55.18ZM222,64.47h-.36v-.37H222Zm2.93,37.37-.37-.19-.18-.37.18-.36h.37Zm5.31-10.62v-.55l.55.18.18.37Zm1.65-6.78.36-.37.73.18-.36.36-.73.18Zm0,2.57h-1.1l.18-.92-.55-.92v-.37l.19-.19.73-.18-.36.92.18.91.55.18Zm-1.1-6.6.55.37.18.37-.36,1.28-.55-.55-.18-.73.18-.36.19-.18Zm-1.1-2.2.55.18.36.73v.73h-.18l-.73-.55-.19-.73Zm-.37,14.47.18-.73.19-.37.73.55v.18L229.68,94,228,93.78l.18-.73.73-.36V93h.18Zm-2-12.27-.18-.73.18-.18.73-.18.37.18-.19.37Zm-1.47,19.24.19-.18.18-.55-.18-.36.18-.37-.36-.73-.18-.91.55-.18.92.73-.37,1.1.19.18.91.73.19.92-.36-.18-.55-.73-.92-.18.55.18.36.73h-.92Z"/><polygon class="a" points="72.53 20.51 69.97 20.51 69.97 9.89 81.32 24.73 85.17 24.73 85.17 4.76 87.73 4.76 87.73 0.55 77.66 0.55 77.66 4.76 80.22 4.76 80.04 15.75 68.5 0.55 62.27 0.55 62.27 4.76 64.84 4.76 64.84 20.51 62.27 20.51 62.27 24.73 72.53 24.73 72.53 20.51"/><polygon class="a" points="170.16 20.51 167.59 20.51 167.59 24.73 185.36 24.73 185.36 17.58 180.97 17.58 180.97 20.51 175.29 20.51 175.29 15.38 180.78 15.38 180.78 11.17 175.1 11.17 175.1 4.76 180.78 4.76 180.78 7.87 185.18 7.87 185.18 0.55 167.41 0.55 167.41 4.76 169.97 4.76 170.16 20.51"/><path class="a" d="M18.13,24.73h4c2.75-6.59,5.31-13.37,8.06-20h2.56V.55H23.08V4.76h2L20.15,17.58,15.2,4.76h2V.55H7.51V4.76h2.56S15.39,18.13,18.13,24.73Z"/><polygon class="a" points="95.79 4.76 98.91 4.76 98.91 20.51 96.34 20.51 96.34 24.73 106.6 24.73 106.6 20.51 104.03 20.51 104.03 4.76 107.15 4.76 107.15 7.88 111.54 7.88 111.54 0.55 91.58 0.55 91.58 7.88 95.79 7.88 95.79 4.76"/><path class="a" d="M121.44,20.51h-2l.73-2h8.24l.73,2h-1.65v4.21h9.71V20.51h-2.74l-8.06-20h-8.24V4.76h2.56l-6.41,15.75h-2.56v4.21h9.71Zm3.11-12.82,2.75,7H121.8Z"/><path class="a" d="M46.89,25.28A12.64,12.64,0,1,0,34.07,12.64,12.59,12.59,0,0,0,46.89,25.28ZM40.84,7a8.15,8.15,0,0,1,5.86-2.38A8.82,8.82,0,0,1,52.57,7a8,8,0,0,1,2.38,5.68,7.35,7.35,0,0,1-2.38,5.68,8.47,8.47,0,0,1-5.86,2.38,8.82,8.82,0,0,1-5.86-2.38,8,8,0,0,1-2.38-5.68A7.35,7.35,0,0,1,40.84,7Z"/><path class="a" d="M163.75,12.09C163.75,1.65,153.67.55,150.56.55H139.94V4.76h2.56V20.51h-2.56v4.21h11.36C155.87,24.73,163.75,22.71,163.75,12.09ZM146.9,20.33V4.58h3.48a13.86,13.86,0,0,1,5.49,1.28c2.38,1.28,3.48,3.3,3.48,6.23,0,3.3-1.1,5.49-2.93,6.78a9.11,9.11,0,0,1-5.49,1.47Z"/><polygon class="a" points="245.44 17.58 241.04 17.58 241.04 20.51 235.36 20.51 235.36 15.38 240.86 15.38 240.86 11.17 235.36 11.17 235.36 4.76 241.04 4.76 241.04 7.87 245.44 7.87 245.44 0.55 227.67 0.55 227.67 4.76 230.24 4.76 230.24 20.51 227.67 20.51 227.67 24.73 245.44 24.73 245.44 17.58"/><path class="a" d="M224,12.09C224,1.46,213.75.55,210.64.55h-9.52V4.76h1.65V20.51h-1.65v4.21h10.44C216.13,24.73,224,22.71,224,12.09Zm-17,8.24V4.58h3.48a13.87,13.87,0,0,1,5.5,1.28c2.38,1.28,3.48,3.3,3.48,6.23,0,3.3-.91,5.49-2.93,6.78A9.11,9.11,0,0,1,211,20.33Z"/></svg>