<svg xmlns="http://www.w3.org/2000/svg" viewBox="0 0 136.6 79.1"><defs><style>.a{fill:#999;}</style></defs><title>logotype-mobile</title><polygon class="a" points="32.7 44.3 33.3 43.4 33.5 42.7 33.9 42 34.6 40.5 34.8 39.7 35.2 39 35.5 38.2 35.8 37.1 36.2 36.3 36.6 34.7 36.9 33.9 37.1 32.4 37.3 32.2 37.7 31 37.9 29.3 38.2 27.7 38.4 26 38.7 25.4 38.9 23.8 38.8 22.2 39 21.6 38.6 21 38 20.6 37.5 20.7 36.8 21.1 35.8 21.2 34.9 21.7 34.4 22.9 34.2 24.5 34.4 24.8 34.2 25.3 33.9 26.9 33.7 28.6 33.4 29.3 33.3 30.1 33.2 30.2 32.9 31.6 32.8 31.7 32.7 32.5 32.3 33.3 32.2 34.1 32 34.3 31.7 35.5 31.2 36.7 31 37.9 30.6 38.6 30.2 39.1 29.7 40.6 28.8 42 28 43.5 27.1 44.9 27 45.3 26.7 45.7 26.6 46.1 26.4 46.2 26.2 46.5 25.6 47.1 25.6 47.4 25.3 47.6 25.2 47.9 24.9 48.2 24.9 48.4 24.6 48.9 24.4 49 24.3 49.4 24 49.5 23.9 49.9 23.4 50.3 23.2 50.6 22.6 51.2 21.5 52.4 19.2 54.7 18.6 55.2 18 55.8 16.8 57 16.5 57.1 16.1 57.6 15.6 57.9 15 58.4 14.6 58.6 14 58.4 13.9 57.3 14.1 56.5 14.3 54.9 14.7 53.3 15 51.7 15.2 51.4 15.3 51 15.7 49.4 16.1 47.7 16.2 46.9 16.5 45.8 17.2 42.6 17.4 41 17.6 41 17.6 40.5 17.7 39.9 17.7 39.5 17.8 39.5 17.8 39.2 18 39.2 18 38.9 18.3 37.3 18.4 37.2 18.8 35.7 18.9 34.9 19.1 34.6 19.3 33.3 19.5 33 19.6 31.5 19.9 31 20.3 29.5 20.9 27.9 21.3 27.2 21.4 27.2 21.5 26.9 22.4 26.1 22.7 26 22.8 25.7 23.2 25.6 24.1 24.7 24.5 23.9 24.4 23.1 24 22.4 23.4 22 23.3 21.8 22.6 21.9 21 22.2 20.7 22.5 20.5 22.5 20.2 22.8 19.5 23.2 18.2 24.3 17.6 25 16.5 26.1 15.1 26.8 14.3 27 14.3 27.2 13.9 27.3 13.6 27.6 13.4 27.6 13.4 27.8 12.9 27.9 11.6 28.5 10.7 29 10.5 29.1 10 29.4 8.8 30 8.6 30 8.6 30.1 7.7 30.6 6.2 31.4 5.6 31.9 4.9 32.3 4.6 32.6 4.3 32.7 3.8 33.2 2.7 34.4 1.7 35.7 1.4 36.4 1.2 36.5 1.2 36.7 0.9 37 0.9 37.2 0.6 37.5 0.4 37.9 0.2 38 0 38.5 0 39.5 0 40.2 0 40.7 0.2 42.2 0.5 43 0.6 43.1 0.8 43.6 1.6 44.3 2 44.9 2.2 45.5 3.2 46.3 3.6 46.5 4.2 46.9 4.6 47 5.2 47.4 5.6 47.5 6.1 47.6 6.5 47.7 8.1 47.8 8.8 46.8 8.9 45.9 8.8 45 8.5 44.4 8 43.9 7.3 43.7 7.1 43.5 6 42.9 5.1 41.8 4.8 41.1 4.8 40.4 5 39 5.6 37.5 5.7 37.5 5.7 37.1 6 37 6.1 36.6 6.9 35.9 8.1 34.7 9.4 33.8 10.9 33 11.1 32.7 12.7 32 14.1 31.4 14.8 31.4 15.1 31.6 15.4 32.1 15.2 32.9 14.8 34.5 14.5 36.1 14.3 36.2 14.1 37.6 14 37.7 14 38.8 13.8 39 13.5 40.1 13.3 40.2 13.2 41.9 12.7 43 12.4 44.6 12.1 46.3 11.6 47.9 11.5 48.7 11.2 49.5 11.1 50.3 10.9 50.4 11.1 51.6 10.9 51.7 10.8 52.2 10.3 53.2 10.3 53.6 10.1 54.3 9.8 55.9 9.3 57.5 9 59.2 8.8 59.5 8.4 60.6 8.4 61.5 8 63.1 7.9 63.1 7.9 64 8 64.1 8.9 64.8 10.3 64.7 11.1 64.8 11.9 64.7 12 64.6 12.8 64.5 13.8 63.8 14.6 63.2 15.6 62.8 16.2 62.3 16.6 62.1 16.8 61.8 17.2 61.7 17.3 61.5 17.6 61.5 18.6 60.5 19 60.5 19.1 60.3 19.4 60.3 19.6 60 20.3 59.5 21.5 58.4 22.7 57.3 23.9 56.1 25.1 54.9 26.2 53.7 27.4 52.5 27.6 52 28.5 50.8 29.2 50.2 29.4 49.7 30 49 30.3 48.2 30.8 47.6 30.9 47.3 31.2 47.2 31.6 46.4 31.7 45.8 32 45.5 32.1 45.1 32.2 45.1 32.2 44.9 32.6 44.6 32.7 44.3"/><polygon class="a" points="45.6 28 45.6 28.1 45.4 28.1 44.5 28.2 43.5 29.2 43.1 29.9 43.1 30.4 43.2 30.7 43.2 31.2 43.4 31.5 43.6 32.2 43.9 32.5 44 32.8 45.1 33.6 45.7 33.7 46.6 33.7 46.6 33.5 47.2 33.4 48.1 32.5 48.7 31.5 48.9 30.7 48.7 29.9 48.3 29.1 47.1 28.1 45.6 28"/><polygon class="a" points="88.2 28.8 87.6 28.4 86.8 28 86.3 27.9 85 28.2 83.9 29.2 83.9 29.3 83.8 30 83.4 31.5 83.4 31.9 83.9 32.7 84.5 33.3 85.3 33.8 85.9 34 86.8 34 87.5 33.7 88.2 33.2 88.7 32.6 88.9 32.2 89 31.7 89.2 31.5 89.3 31 89.2 30.2 88.8 29.4 88.2 28.8"/><path class="a" d="M136.9,51.3l-.8-.9h-.5l-.8.3-.5.8-.7,1.1-.8,1.4-.9,1.4v.2h-.1v.3l-.7.7-.1.3-.6.9-1,1.3-.6.6-.1.3-.3.3-1.2,1.1-.8.4-.8.3L125,62l-.2-.2-.1-.3-.3-.4-.1-.6.2-.8.3-1.6.4-1.2h.2l.2-.7.3-.7.6-1.5-.1-.2-.4.1-.3-.1.1-.1.1-.1h.5l.1-.3.2-.2.1-.4.3-.4.5-1.6.4-.7.7-1.7.2-.8-.1-.7-.1-1.9-.2-.5-.5-.7-.9-1.1-1.2-1.1-1.2-1.2-.3-.1-.7-.8-.1-.8.2-.4.4-1.1.7-1.4.2-.8-.2-.9-.2-.1v-.2l-.9-.6h-.4l-.1-.2-1.3-.3-.8.3-.3.3h-.3l-.5.7-.6.5-.1.4-.3.3-.1.4-.7.9-.2.6-.1.9.1.9h.1l.1.8h.1v.2h.2l.1.3.4.5.3.7-.4,1.5-.1.1-.1.3-.3.4-.1.5-.2.1-.1.3-.2.2-.5,1.2-.5.7v.3l-.3.3-.4,1.2-.5.6-.1.5-.7,1.1-.23.53-.17.17v.2l-.2.1-.1.3-.2.1.1.3-.5.7-.1.3-.2.1v.2l-.3.1V54l-.5.7v.2l-.2.1-.1.3-.2.1-.1.4-.6.8-1.2,1.1v.2l-.6.6-.1.4-.8.6-.1.3-1.2,1.1h-.2l-.3.4-.3.1-.3.4-1.3.7-.8.2-.1-.1-.4-.1-.5-.7-.2-.7v-.8l.4-1.6h.1l.2-.6.5-1.2.3-1.2.1-.1.1-.5.2-.3.2-.7h.1v-.3h.1v-.2h.1v-.3h.2v-.2h.1v-.3l.2-.1.3-.8.4-1.5.2-.2.3-.8.7-1.5.3-1.5.2-.3.6-1.5.3-.4.1-.4.5-1.4.4-.6v-.2h.1v-.3h.1V41h.2l.5-1.1.1-.6.2-.5-.1-.1-.3-.2-.8.1-.1.1-.6.2-.8.4v.1h-.3l-.4.4-1.1.5-.8.1-.5-.4-.8-1.5-1-1-1.4-.7-.7.1-1.8-.1-.7.2-1.4.6h-.2l-.3.3-.7.3-.3.4-.4.1-.2.3-.6.5-.5.7-.2.5L94,41l.2.4-1.1,1.2-.6,1.3-.2.1v-.1L92,44v.3l-.2.1v.2l-.3.2-.1.3-.2.1-.2.6h-.1l-.2.8-.1.1-.2.8h-.1v.2h-.2V48H90v.2h-.1v.3h-.1l-.9,2.6-.26.89L87.9,53.1h-.1v.2h-.2l-.1.3-.2.1-.1.3-.3.1L86,55.3v.2l-.3.1-.1.3-.2.1-.6.7-1.1,1.2L82.5,59h-.2l-.2.3h-.2l-.3.3h-.2l-.1.3-.4.1-.2.3h-.2l-.4.4-1,.7-1.5.8v-.5l-.1-.1-.1-.2.2-.7.4-1.4.7-1.6.4-.7.2-1.2.3-.3.1-.4.4-.5.5-1.5.3-.3.5-1.6.7-1.7.2-.8.2-.3v-.2l.8-1.4.4-1.2.5-1.4.5-.6v-.2h.1v-.3h.1v-.2H85v-.3h.2l.4-1.2.2-.3.5-1.2v-.2h.1l.1-.4.2-.4.2-.8-.3-.7L86,37l-.5-.1H83.7l-.8.3-.2-.1-.6,1.3L81,39.6l-.6,1.6-.9,1.5-.8,1.4-.3.8-.3.3-.6,1.5-.3.3-.5,1.3-.3.3-.8,1.5v.37l-.3.13-.6.6v.2l-.2.1-.1.3-.2.1-.1.4-.5.7-.1.3-.2.1v.2l-.3.1V54l-.1.2v.2l-.2.1-.1.3-.2.1-.1.4-.6.8-1.2,1.1v.2l-.6.6-.1.4L69,59l-.4.8-1.2,1.1h-.2l-.3.4-.3.1-.3.4-1.3.7-.8.2-.1-.1-.4-.1-.5-.7-.2-.7v-.8l.4-1.6h.1l.2-.6.5-1.2.3-1.2.1-.1.1-.5.2-.3.2-.7h.1v-.3h.1v-.2h.1v-.3h.2v-.2h.1v-.3l.2-.1.3-.8.4-1.5.2-.2.3-.8.7-1.5.3-1.5.2-.3.6-1.5.3-.4.1-.4.5-1.4.4-.6v-.2h.1v-.3h.1V41h.2l.5-1.1.1-.6.5-.5-.1-.1-.3-.2-.8.1-.1.1-.6.2-.8.4v.1h-.3l-.4.4-1.1.5-.8.1-.5-.4-.8-1.5-1-1-1.4-.7-.7.1-1.8-.1-.7.2-1.4.6h-.2l-.3.3-.7.3-.3.4-.4.1L56,39l-.6.5-.5.7-.2.5-.3.3-.2.4-1.1,1.2-.6,1.3-.2.1v-.1L52,44v.3l-.2.1v.2l-.3.2-.1.3-.2.1-.2.6h-.1l-.2.8-.1.1-.2.8h-.1v.2h-.2V48H50v.2h-.1v.3h-.1L48.92,51l-.32.16h-.1l-.1.3-.3.3-.1.4-.5.4-.2.5-.4.8-.1.3-1.1,1-1,1.3-.1.4-.4.4-.2.4-.2.1-.1.4-.5.4-.6.7-.6.4-.6.6-.4.1-.4.5-.2.1-.5.4-.6.2-.2.2-.6.2-.6-.2-.5-.6-.3-1.3.1-.5.4-1.6.2-.1.1-.6L38,57l.6-1.6.7-1.6.5-1.5.7-1.5.2-.7.6-1.5.7-1.5.5-1.6.5-.6.1-.3.3-.1.2-.5.1-.6.2-.2.1-.6.3-.3v-.2l.1-.1.1-.8.3-.3.1-.4.3-.3.1-.2.5-1.6-.4-.7-.8-.5-.8-.2h-.9l-.7.2L41,38.3l-.1.4-.7,1.6-.1.4-.2.3-.6,1.5-.6,1.6-.2.2-.3.7-.6,1.6h-.1l-.1.2-.5,1.6-.4,1h-.1v.2h-.1v.3h-.2v.3H36l-.3,1-.2.2-.2.8-.3.5-.2.7h-.2v.2h-.1v.3h-.1l-.1.5-.5,1.7-.4.7L33.3,58l-.4,1.6v.7L33,62l.3.7.5,1,.1.1.7.8.5.3.9.2,1.7.3.6-.2,1.6-.5,1.1-.4h.4l.1-.2h.3l.1-.3h.3l.1-.2h.2l.2-.3.3-.1.2-.3.4-.1.2-.3.4-.2.4-.7,1.2-1.2v-.2l.3-.3.1-.2.3-.3.1-.2h.1l.2-.5.23-.19,0,.29.1.8.2,1.7.6,1.5h.1l.3.6.9,1,.3.2,1.2.6.9.1.9-.2,1.4-.4,1.1-.2v-.1h.2l.1-.2.4-.2v.1l.3-.1.3-.3.4-.1.2-.3.4-.1.1-.2.4-.2.6-.6.3-.1.4.3.4.6.3.7.2.1.6.6.3.1.1.3,1.3.5,1.2.1.8-.1,1.7-.5.8-.3v-.1h.3l.8-.6v-.1h.3l1.2-1.1,1.2-1.1.2-.3.5-.4.2-.3,1.2-1.2.72-1-.22.93-.1.1-.3,1-.2.2-.1.3-.2.2-.1.5-.2.2-.7,1.5v.4l-.1.3L70.7,65l-.6.6-.7.4-1.5.7-.6.2-.4.3h-.3l-.3.3-.8.3-.3.3-.8.4-1.5.7-.1.2-.4.2v.1h-.3l-.3.3-1.2,1-1.1,1.3-.7,1.1-.2,1.3.1,1.6.6,1.3.5.6,1.4.8,1.6.5.8.1,1.7-.3.8-.1,1-.5.5-.5.3-.1,1.1-1,1.1-1.2,1-1.3.4-.7h.1l.3-.6.7-1.5.4-.7.3-.7.2-.2.3-1.2.4-1.5.7-.9h.3l1.3-.6,1.3-.8.7-.2v.3h.3v-.1l.3-.1.2-.2,1-.7.4-.2v-.2l.3-.1.4-.2,1.3-.9.6-.6.4-.2L85,60.7l1.1-1.2h.2l.7-.7.13-.26,0,.26.1.8.2,1.7.6,1.5.3.6.9,1,.3.2,1.2.6.9.1.9-.2,1.4-.4,1.1-.2v-.1h.2l.1-.2.4-.2v.2l.3-.1.3-.3.4-.1.2-.3.4-.1.1-.2.4-.2.6-.6.3-.1.4.3.4.6.3.7.2.1.6.6.3.1.1.3,1.3.5,1.2.1.8-.1,1.7-.5.8-.3v-.1h.3l.8-.6v-.1h.2l1.2-1.1,1.2-1.1.2-.3.5-.4.2-.3,1.2-1.2.9-1.3,1-1.3.2-.5.3-.3.4-.7.8-1.5.3-.3.1-.4.3-.3.3-.6h0l.1-.1.1-.3.2-.1.3-.7h.1v-.3l.4-.7.7-1.4h.1v-.2l.5-.8.1-.3h.2V47h.4v-.2h.1v-.3l.4-.5.1-.4.6-1.5.7-.5.4.1.9.9h.3l.2.3.2.1v.1l.2.1v.2l.3.3-.1.9-.4,1.3-.2.1-.1.8-.3.3-.1.4-.4.6-.7,1.6-.2.7-.3.8-.5,1.2h-.1l-.4,1.1-.2.9-.1.1v.3l-.2.8-.2,1.7-.2,1.8.2.8.4.6.2.6.7.8,1.2,1,.6.1.1.2h.2l1.9-.1,1.1-.3,1.2-.7,1.3-1,1.3-1,.6-1,1.2-1.2.1-.4.7-.9.9-1.3.8-1.2.7-1.5.3-.3.5-.8L137,52ZM83.2,39.9h.3l.2.4-.2.1-.3-.2ZM83,43.3l.2.1v.2h-.3l-.1-.2Zm-4.9,7.5.1-.1.2-.2.2.1.1.5-.2.6-.2-.4-.1-.5Zm1.2,1.5-1,.1v-.1l.6-.2.3-.3h.1l.3.1Zm1.1-2.7-1,.4.1.8-.4-.2-.2-.4.5-.4.2-.6h.1l.4.1.2-.2.2.1.1.5Zm-1.3-1.1v-.3l.3-.4.3-.2.4.1.1.4-.1.2-.6.2Zm1.6-.7h-.4v-.2l.1-.3.3.2Zm1.6-3.5h.2l-.1.3-.8.5v-.5l.4-.5Zm-.4-2.7h.2v.3h-.4Zm-.6,1,.1-.1h.7v.4l-.4.4-.1.6-.3-.2-.1-.4.3-.3v-.1Zm-1.6,1.5.1-.1.6-.1.2.1v.3l-.4.2.1,1-.4-.2v-.6l-.2-.3Zm-.1,2.7.4-.2.3-.3.5-.2v-.5l.3.3.2.4.3.4v.2l-.2.2h-.2l-.5-.4-.5.1-.5.3-.2-.1Zm-.8-.4.4.2.2.9-.1-.1-.4-.2-.2-.6ZM78,49.7l.5-.5.4-.1.2.4-.4.2-.3.2.1.4-.2-.1-.3-.4Zm-18.5,7-.2.1v.3l-.3.1v.2l-.6.6-1.1,1.3-.2.1-.3.3-1.9,1-.1.2h-.4l-.4.3h-.7l-.8-.2v-.1l-.7-.6-.3-1.4h-.1l.1-.7.4-1.6.4-1.4.2-.2.1-.3.2-1.6.2-.4.2-.1.1-.4.2-.2.5-1.5.6-1.6.3-.3.2-.5.9-1.5.1-.4.6-1.1.3-.3.2-.4.1-.1.9-1v-.2l.7-.8.6-.5h.2l.1-.2.5-.2,1.1-.4h.8l.8.2,1.1.8.3.7-.1.8-.1,1.7-.5,1.6L63,48.3l-.2.6-.5,1.2-.5,1.6-.7,1.6-.7,1.4-.7,1.5Zm8.8,13.8-.7,1.3-.3.3-.1.4-.3.2V73l-.2.1-.1.4-1.1,1.2-1,.7-.3.1v.2l-1.1.1-.6-.2L62,75l.1-.4.3-.9,1-1.2L64,72l.5-.3,1.2-1,.9-.3v-.1l.8-.5.1-.1H68l.3.4Zm4-4,.6.2.1.2h-.2l-.5-.2Zm1,1.4-.3-.2h-.1l-.5-.4-.1-.2.7.1.3.2.2.4Zm2.2-5.3-.2.1-.4-.2.1-.3.4.1.1.1Zm1.3-6.7-.3.1-.3-.1.1-.1.3-.1.2.1Zm.4-.7.2-.3h.3l-.1.2v.5h-.1l-.2-.2ZM101,57.7l-.6.3-.4.1-.2-.1.1-.3.3-.1.1-.1.4-.4h.3Zm-.7-3-.7,1.5-.2.5-.2.1v.3l-.3.1v.2l-.6.6-1.1,1.3-.2.1-.3.3-1.9,1-.1.2h-.4l-.7.3h-.7l-.8-.2v-.1l-.7-.6-.3-1.4H91l.1-.7.4-1.6.4-1.4.2-.2.1-.3.2-1.6.2-.4.2-.1.1-.4.2-.2.5-1.5.6-1.6.3-.3.2-.5.9-1.5.1-.4.6-1.1.3-.3.2-.4.1-.1.9-1v-.2l.7-.8.6-.5h.2l.1-.2.5-.2L101,41h1.1l.8.2,1.1.8.3.7-.1.8-.1,1.7-.5,1.6-.7,1.5-.2.6-.5,1.2-.5,1.6-.7,1.6Zm1.5,4.6h-.2l-.2-.5h.3l.2.2Zm.3,1.9.1-.1.1-.3.3.1.1.4Zm.6,1.2-.3-.1.1-.1.1-.2.2.1Zm20.5-6.3L123,56l-.1-.2.1-.2h.2Zm2.9-5.8V50l.3.1.1.2Zm.9-3.7.2-.2.4.1-.2.2-.4.1Zm0,1.4h-.6l.1-.5-.3-.5v-.2l.1-.1.4-.1-.2.5.1.5.3.1Zm-.6-3.6.3.2.1.2-.2.7-.3-.3-.1-.4.1-.2.1-.1Zm-.6-1.2.3.1.2.4v.4h-.1l-.4-.3-.1-.4Zm-.3,8.1.1-.2.1-.4.1-.2.4.3v.1l-.4.9-.9-.1.1-.4.4-.2v.2Zm-1-6.9-.1-.4.1-.1.4-.1.2.1-.1.2Zm-.8,10.5.1-.1.1-.3-.1-.2.1-.2-.2-.4-.1-.5.3-.1.5.4-.2.6.1.1.5.4.1.5-.2-.1-.3-.4-.5-.1.3.1.2.4h-.5Z" transform="translate(-0.4 -0.5)"/><polygon class="a" points="39.6 11.2 38.2 11.2 38.2 5.4 44.4 13.5 46.5 13.5 46.5 2.6 47.9 2.6 47.9 0.3 42.4 0.3 42.4 2.6 43.8 2.6 43.7 8.6 37.4 0.3 34 0.3 34 2.6 35.4 2.6 35.4 11.2 34 11.2 34 13.5 39.6 13.5 39.6 11.2"/><polygon class="a" points="92.9 11.2 91.5 11.2 91.5 13.5 101.2 13.5 101.2 9.6 98.8 9.6 98.8 11.2 95.7 11.2 95.7 8.4 98.7 8.4 98.7 6.1 95.6 6.1 95.6 2.6 98.7 2.6 98.7 4.3 101.1 4.3 101.1 0.3 91.4 0.3 91.4 2.6 92.8 2.6 92.9 11.2"/><path class="a" d="M10.3,14h2.2c1.5-3.6,2.9-7.3,4.4-10.9h1.4V.8H13V3.1h1.1l-2.7,7-2.7-7H9.8V.8H4.5V3.1H5.9S8.8,10.4,10.3,14Z" transform="translate(-0.4 -0.5)"/><polygon class="a" points="52.3 2.6 54 2.6 54 11.2 52.6 11.2 52.6 13.5 58.2 13.5 58.2 11.2 56.8 11.2 56.8 2.6 58.5 2.6 58.5 4.3 60.9 4.3 60.9 0.3 50 0.3 50 4.3 52.3 4.3 52.3 2.6"/><path class="a" d="M66.7,11.7H65.6l.4-1.1h4.5l.4,1.1H70V14h5.3V11.7H73.8L69.4.8H64.9V3.1h1.4l-3.5,8.6H61.4V14h5.3Zm1.7-7,1.5,3.8h-3Z" transform="translate(-0.4 -0.5)"/><path class="a" d="M26,14.3a6.9,6.9,0,1,0-7-6.9A6.87,6.87,0,0,0,26,14.3Zm-3.3-10A4.45,4.45,0,0,1,25.9,3a4.82,4.82,0,0,1,3.2,1.3,4.39,4.39,0,0,1,1.3,3.1,4,4,0,0,1-1.3,3.1,4.63,4.63,0,0,1-3.2,1.3,4.82,4.82,0,0,1-3.2-1.3,4.39,4.39,0,0,1-1.3-3.1A4,4,0,0,1,22.7,4.3Z" transform="translate(-0.4 -0.5)"/><path class="a" d="M89.8,7.1c0-5.7-5.5-6.3-7.2-6.3H76.8V3.1h1.4v8.6H76.8V14H83C85.5,14,89.8,12.9,89.8,7.1Zm-9.2,4.5V3h1.9a7.55,7.55,0,0,1,3,.7,3.51,3.51,0,0,1,1.9,3.4,4.21,4.21,0,0,1-1.6,3.7,5,5,0,0,1-3,.8Z" transform="translate(-0.4 -0.5)"/><polygon class="a" points="134 9.6 131.6 9.6 131.6 11.2 128.5 11.2 128.5 8.4 131.5 8.4 131.5 6.1 128.5 6.1 128.5 2.6 131.6 2.6 131.6 4.3 134 4.3 134 0.3 124.3 0.3 124.3 2.6 125.7 2.6 125.7 11.2 124.3 11.2 124.3 13.5 134 13.5 134 9.6"/><path class="a" d="M122.7,7.1c0-5.8-5.6-6.3-7.3-6.3h-5.2V3.1h.9v8.6h-.9V14h5.7C118.4,14,122.7,12.9,122.7,7.1Zm-9.3,4.5V3h1.9a7.55,7.55,0,0,1,3,.7,3.51,3.51,0,0,1,1.9,3.4c0,1.8-.5,3-1.6,3.7a5,5,0,0,1-3,.8Z" transform="translate(-0.4 -0.5)"/></svg>